# xmcd CD database file
#
# Track frame offsets:
#	150
#	38621
#	75450
#	118237
#	158343
#	199594
#
# Disc length: 3102 seconds
#
# Revision: 0
# Processed by: cddbd v1.5.2PL0 Copyright (c) Steve Scherf et al.
# Submitted via: CDex 1.51
#
DISCID=3a0c1c06
DTITLE=Paquito D'Rivera - Live at Keystone Korner
DYEAR=1983
DGENRE=Jazz
TTITLE0=Havanna - New-York
TTITLE1=Song For Maura
TTITLE2=Red On  Red
TTITLE3=Deja Vu
TTITLE4=Zanaith
TTITLE5=Estamos Ahi
EXTD=YEAR: 1983
EXTT0=
EXTT1=
EXTT2=
EXTT3=
EXTT4=
EXTT5=
PLAYORDER=
